# xmcd
#
# Track frame offsets: 
#        150
#        19550
#        36288
#        50623
#        68928
#        93848
#        110148
#        125920
#        141483
#        157925
#        175190
#        191003
#
# Disc length: 2825 seconds
#
# Revision: 1
# Processed by: cddbd v1.5PL3 Copyright (c) Steve Scherf et al.
# Submitted via: ExactAudioCopy v0.95a3
#
DISCID=ac0b070c
DTITLE=Rita Coolidge - Greatest Hits
DYEAR=1980
DGENRE=Rock
TTITLE0=Born Under A Bad Sign
TTITLE1=We're All Alone
TTITLE2=Fool That I Am
TTITLE3=(Your Love Has Lifted Me) Higher And Higher
TTITLE4=Nice Feelin'
TTITLE5=The Way You Do The Things You Do
TTITLE6=I'd Rather Leave While I'm In Love
TTITLE7=Words
TTITLE8=Only You Know And I Know
TTITLE9=I Don't Want To Talk About It
TTITLE10=Fever
TTITLE11=Am I Blue
EXTD=A and M-1980
EXTT0=
EXTT1=
EXTT2=
EXTT3=
EXTT4=
EXTT5=
EXTT6=
EXTT7=
EXTT8=
EXTT9=
EXTT10=
EXTT11=
PLAYORDER=
